<svg xmlns="http://www.w3.org/2000/svg" width="18" height="18" fill="none" viewBox="0 0 18 18">
  <path stroke="#2d2d2d" stroke-width="1.5" stroke-linecap="round" stroke-linejoin="round" d="M4.5 2.25v3.75M13.5 2.25v3.75M2.25 6.75h13.5M3.75 15.75h10.5a1.5 1.5 0 0 0 1.5-1.5V5.25a1.5 1.5 0 0 0-1.5-1.5H3.75a1.5 1.5 0 0 0-1.5 1.5v9a1.5 1.5 0 0 0 1.5 1.5Z"/>
  <path stroke="#2d2d2d" stroke-width="1.5" stroke-linecap="round" stroke-linejoin="round" d="M6.75 10.5h.008v.008H6.75V10.5Zm2.25 0h.008v.008H9V10.5Zm2.25 0h.008v.008h-.008V10.5Zm-4.5 2.25h.008v.008H6.75v-.008Zm2.25 0h.008v.008H9v-.008Zm2.25 0h.008v.008h-.008v-.008Z"/>
</svg>
