<svg xmlns="http://www.w3.org/2000/svg" data-name="Layer 2" viewBox="0 0 1363 286">
  <path d="M386 210h-32V60h59q29 0 44 12 16 14 16 36 0 16-9 27-9 12-25 17l39 58h-38l-34-53h-20zm0-124v45h25q15 0 22-6 8-5 8-17c0-12-3-13-8-16q-7-6-22-6zm149 126q-17 0-29-7-13-8-20-20-6-14-7-31c-1-17 3-21 8-30a53 53 0 0 1 48-28q13 0 24 5 10 5 18 14t11 21 1 25h-92v-18h61q-1-12-7-19-6-6-17-6-8 0-13 4-6 5-9 12-3 8-3 20c0 12 1 14 3 19q3 9 9 13 5 3 14 4 9 0 16-5 6-4 9-13h29q-6 19-19 30-14 10-35 10m136-2v-14q-5 9-14 12-8 4-19 4-17 0-29-9-10-9-10-25c0-16 4-19 13-25q13-9 37-9l19 1v-6q0-10-5-15t-15-5c-10 0-11 2-14 5q-6 5-7 15h-26q1-13 7-23 6-9 17-15 10-5 23-5 23 0 35 12 12 11 12 32v70zm-45-33q0 7 5 11 4 4 13 4 11 0 17-6 7-5 7-15v-8l-17-1q-12 0-19 3-6 5-6 12m138 35q-17 0-29-7-12-8-19-20-7-13-7-31c0-18 2-21 7-30a53 53 0 0 1 48-28q14 0 26 6t19 18q8 11 9 26h-31q0-10-7-18-6-6-16-6-8 0-13 4-6 4-9 11-3 8-3 17 0 12 3 17 3 7 9 12 5 3 13 4 9 0 16-7 7-6 7-18h31q-1 17-9 27-7 11-19 17-11 6-26 6m139-30v25a43 43 0 0 1-23 5q-11 0-20-4c-9-4-10-7-13-13q-4-9-4-21v-51h-23V98h23V65h29v33h32v25h-32v44q0 10 4 14 4 5 12 5zm86 31a80 80 0 0 1-55-22q-11-10-17-25-5-14-5-32c0-18 1-21 5-31q6-13 16-24 11-11 24-17 15-6 31-6 19 1 34 7 15 8 26 20t15 29h-37a36 36 0 0 0-21-23q-7-4-18-4-12 0-22 6-9 6-15 17t-6 27q0 15 6 26 4 12 15 19 11 6 26 6 11 0 19-4 8-3 14-11c6-8 6-10 7-17h-43v-25h77q1 19-4 34-4 15-15 27-10 11-24 17-15 7-33 7m126-142q0 8-5 12-6 6-14 5-11 0-14-5-6-4-6-12 0-7 6-13 5-4 14-4c9 0 10 1 14 4q5 6 5 13m-5 138h-29V98h29zm52-54v54h-29V98h27v22q6-11 18-17t25-6v30l-21 1q-10 3-15 9-5 7-5 19m82 54h-29V60h29zm117-36q0 18-13 28-12 10-37 10c-25 0-28-3-37-10q-14-11-15-30h28q0 8 7 14 7 5 18 5 8 0 14-3t6-9-4-8l-12-4-20-3q-15-3-23-11-9-9-9-22 0-11 6-18 5-8 16-12 9-5 24-5c15 0 17 2 25 5q11 4 17 13 7 9 7 21h-28q0-8-6-13-6-4-15-4-9-1-13 2-5 3-5 9 0 4 3 7l12 4 21 4q16 3 25 11 8 7 8 19M285 143q0-33-26-54 14-39-4-58-18-18-58-4a69 69 0 0 0-108 0q-39-14-58 4-18 18-4 58a69 69 0 0 0 0 108q-14 38 4 57 11 11 28 11 14 0 30-6a69 69 0 0 0 108 0q17 6 30 6 17 0 28-11 18-19 4-57 26-21 26-54m-91-91q19-9 33-9 8 0 12 4c7 6 5 24-5 45q-7 16-19 33a396 396 0 0 0-54-55zm8 91a371 371 0 0 1-59 59 371 371 0 0 1-59-59 371 371 0 0 1 59-59 371 371 0 0 1 59 59M143 21q21 0 35 14-18 9-35 21-17-12-35-21 15-14 35-14M47 47q12-10 45 5l33 18a396 396 0 0 0-54 55q-12-17-19-33c-10-21-12-39-5-45m-26 96q0-20 14-35 9 17 22 35-13 18-22 34-14-14-14-34m71 91q-33 14-45 5-10-12 5-46 7-15 19-32a396 396 0 0 0 54 54q-17 12-32 19m51 31q-21 0-35-14 17-9 35-22 18 14 35 21-14 15-35 15m96-26c-6 6-24 4-45-5q-17-7-33-19a396 396 0 0 0 54-54q12 17 19 32 15 34 5 46m12-61q-9-17-22-35 13-18 22-35a49 49 0 0 1 0 70m-108-50a14 14 0 1 0 0 29 14 14 0 0 0 0-29"/>
</svg>
