<svg xmlns="http://www.w3.org/2000/svg" width="20" height="16" fill="none">
  <path fill="#2d2d2d" d="m19.8 15.4-1 .5a5 5 0 0 1-3.2-.4c-3-1.3-2.3-4.5-1-6.8l1.2-2c.3-.5 1-1.4.7-2q-.6-1.1-1.5-.2l-1.2 2-2 4.4a7 7 0 0 1-1.5 2 2 2 0 0 1-1.8 0 1 1 0 0 1-.4-1c.3-2 3.5-6.7 1.3-7-.8-.2-1 .7-1.3 1.3L6.9 9q-.8 1.4-1.2 3.2v.1c-.2 1-.5 2.1-1.6 2.4-3 .8-3.9-1.1-3.9-1.1-.5-1.5 0-2.9.4-4.3l1-3.4c1-1.9 1.7-6 4.7-5.7a6 6 0 0 1 2.2.9q.8.6 1.8.1Q11 .6 12 .1q1.2-.4 2 .6c1 .7 1 .4 1.8.2a5 5 0 0 1 2-.1c3.5.5 1.3 4.8.4 6.5-.5 1.1-3 5.6-.8 6.2.7.2 1.6.1 2.2.6q.7.8.2 1.3"/>
</svg>
