<svg xmlns="http://www.w3.org/2000/svg" width="18" height="18" fill="none">
  <g stroke="#2d2d2d" stroke-linecap="round" stroke-linejoin="round" stroke-width="1.5" clip-path="url(#clip0_257_2202)">
    <path d="M12 2.6a1.1 1.1 0 0 0-2.2 0v3.8a1.1 1.1 0 0 0 2.2 0zM14.3 6.4v1.1h1a1.1 1.1 0 1 0-1-1.1M8.3 11.6a1.1 1.1 0 0 0-2.3 0v3.8a1.1 1.1 0 0 0 2.3 0zM3.8 11.6v-1.1H2.6a1.1 1.1 0 1 0 1.2 1.1M15.4 9.8h-3.8a1.1 1.1 0 0 0 0 2.2h3.8a1.1 1.1 0 0 0 0-2.2M11.6 14.3h-1.1v1a1.1 1.1 0 1 0 1.1-1M6.4 6H2.6a1.1 1.1 0 0 0 0 2.3h3.8a1.1 1.1 0 0 0 0-2.3M6.4 3.8h1.1V2.6a1.1 1.1 0 1 0-1.1 1.2"/>
  </g>
  <defs>
    <clipPath id="clip0_257_2202">
      <path fill="#fff" d="M0 0h18v18H0z"/>
    </clipPath>
  </defs>
</svg>
